<svg width="42" height="42" viewBox="0 0 42 42" fill="currentColor" xmlns="http://www.w3.org/2000/svg">
<circle cx="21" cy="21" r="19.6667" fill="#currentColor" stroke="white" stroke-width="2.66667"/>
<g clip-path="url(#clip0_2242_1036)">
<path d="M27.055 15.7588C26.88 15.2425 26.39 14.875 25.8125 14.875H16.1875C15.61 14.875 15.1287 15.2425 14.945 15.7588L13.2212 20.72C13.16 20.9038 13.125 21.0963 13.125 21.2975V27.5625C13.125 28.2887 13.7113 28.875 14.4375 28.875C15.1637 28.875 15.75 28.2887 15.75 27.5625V27.125H26.25V27.5625C26.25 28.28 26.8363 28.875 27.5625 28.875C28.28 28.875 28.875 28.2887 28.875 27.5625V21.2975C28.875 21.105 28.84 20.9038 28.7787 20.72L27.055 15.7588ZM16.1875 24.5C15.4613 24.5 14.875 23.9137 14.875 23.1875C14.875 22.4612 15.4613 21.875 16.1875 21.875C16.9137 21.875 17.5 22.4612 17.5 23.1875C17.5 23.9137 16.9137 24.5 16.1875 24.5ZM25.8125 24.5C25.0863 24.5 24.5 23.9137 24.5 23.1875C24.5 22.4612 25.0863 21.875 25.8125 21.875C26.5387 21.875 27.125 22.4612 27.125 23.1875C27.125 23.9137 26.5387 24.5 25.8125 24.5ZM14.875 20.125L15.9862 16.7825C16.1087 16.4325 16.4412 16.1875 16.8175 16.1875H25.1825C25.5588 16.1875 25.8912 16.4325 26.0138 16.7825L27.125 20.125H14.875Z" fill="white"/>
</g>
<defs>
<clipPath id="clip0_2242_1036">
<rect width="21" height="21" fill="white" transform="translate(10.5 10.5)"/>
</clipPath>
</defs>
</svg>
