<svg width="48" height="60" viewBox="0 0 48 60" fill="none" xmlns="http://www.w3.org/2000/svg">
<g opacity="0.24" filter="url(#filter0_f_2234_7994)">
<ellipse cx="23.999" cy="47.9995" rx="18" ry="6" fill="#888888"/>
</g>
<mask id="path-2-inside-1_2234_7994" fill="white">
<path fill-rule="evenodd" clip-rule="evenodd" d="M28.6251 41.4888C37.9974 39.3817 44.999 31.0085 44.999 21C44.999 9.40202 35.597 0 23.999 0C12.401 0 2.99902 9.40202 2.99902 21C2.99902 31.0091 10.0014 39.3827 19.3746 41.4892L23.9997 49.5002L28.6251 41.4888Z"/>
</mask>
<path fill-rule="evenodd" clip-rule="evenodd" d="M28.6251 41.4888C37.9974 39.3817 44.999 31.0085 44.999 21C44.999 9.40202 35.597 0 23.999 0C12.401 0 2.99902 9.40202 2.99902 21C2.99902 31.0091 10.0014 39.3827 19.3746 41.4892L23.9997 49.5002L28.6251 41.4888Z" fill="currentColor"/>
<path d="M28.6251 41.4888L28.2961 40.0253L27.6548 40.1695L27.3261 40.7388L28.6251 41.4888ZM19.3746 41.4892L20.6736 40.7392L20.3449 40.1698L19.7035 40.0257L19.3746 41.4892ZM23.9997 49.5002L22.7007 50.2502L23.9997 52.5002L25.2988 50.2502L23.9997 49.5002ZM43.499 21C43.499 30.2917 36.9987 38.0688 28.2961 40.0253L28.9541 42.9523C38.9962 40.6946 46.499 31.7253 46.499 21H43.499ZM23.999 1.5C34.7686 1.5 43.499 10.2304 43.499 21H46.499C46.499 8.57359 36.4254 -1.5 23.999 -1.5V1.5ZM4.49902 21C4.49902 10.2304 13.2295 1.5 23.999 1.5V-1.5C11.5726 -1.5 1.49902 8.57359 1.49902 21H4.49902ZM19.7035 40.0257C11.0001 38.0697 4.49902 30.2923 4.49902 21H1.49902C1.49902 31.7259 9.00277 40.6957 19.0457 42.9527L19.7035 40.0257ZM25.2988 48.7502L20.6736 40.7392L18.0756 42.2392L22.7007 50.2502L25.2988 48.7502ZM27.3261 40.7388L22.7007 48.7502L25.2988 50.2502L29.9242 42.2388L27.3261 40.7388Z" fill="white" mask="url(#path-2-inside-1_2234_7994)"/>
<g clip-path="url(#clip0_2234_7994)">
<path d="M24 21C26.21 21 28 19.21 28 17C28 14.79 26.21 13 24 13C21.79 13 20 14.79 20 17C20 19.21 21.79 21 24 21ZM24 23C21.33 23 16 24.34 16 27V29H32V27C32 24.34 26.67 23 24 23Z" fill="white"/>
</g>
<defs>
<filter id="filter0_f_2234_7994" x="-0.000976086" y="35.9995" width="48" height="24" filterUnits="userSpaceOnUse" color-interpolation-filters="sRGB">
<feFlood flood-opacity="0" result="BackgroundImageFix"/>
<feBlend mode="normal" in="SourceGraphic" in2="BackgroundImageFix" result="shape"/>
<feGaussianBlur stdDeviation="3" result="effect1_foregroundBlur_2234_7994"/>
</filter>
<clipPath id="clip0_2234_7994">
<rect width="24" height="24" fill="white" transform="translate(12 9)"/>
</clipPath>
</defs>
</svg>
