<svg width="54" height="54" viewBox="0 0 54 54" fill="none" xmlns="http://www.w3.org/2000/svg">
<circle opacity="0.24" cx="27" cy="27" r="26.25" fill="currentColor"/>
<circle cx="27" cy="27" r="19.6667" fill="currentColor" stroke="white" stroke-width="2.66667"/>
<g clip-path="url(#clip0_2242_963)">
<path d="M33.055 21.7588C32.88 21.2425 32.39 20.875 31.8125 20.875H22.1875C21.61 20.875 21.1287 21.2425 20.945 21.7588L19.2212 26.72C19.16 26.9038 19.125 27.0963 19.125 27.2975V33.5625C19.125 34.2887 19.7113 34.875 20.4375 34.875C21.1637 34.875 21.75 34.2887 21.75 33.5625V33.125H32.25V33.5625C32.25 34.28 32.8363 34.875 33.5625 34.875C34.28 34.875 34.875 34.2887 34.875 33.5625V27.2975C34.875 27.105 34.84 26.9038 34.7787 26.72L33.055 21.7588ZM22.1875 30.5C21.4613 30.5 20.875 29.9137 20.875 29.1875C20.875 28.4612 21.4613 27.875 22.1875 27.875C22.9137 27.875 23.5 28.4612 23.5 29.1875C23.5 29.9137 22.9137 30.5 22.1875 30.5ZM31.8125 30.5C31.0863 30.5 30.5 29.9137 30.5 29.1875C30.5 28.4612 31.0863 27.875 31.8125 27.875C32.5387 27.875 33.125 28.4612 33.125 29.1875C33.125 29.9137 32.5387 30.5 31.8125 30.5ZM20.875 26.125L21.9862 22.7825C22.1087 22.4325 22.4412 22.1875 22.8175 22.1875H31.1825C31.5588 22.1875 31.8912 22.4325 32.0138 22.7825L33.125 26.125H20.875Z" fill="white"/>
</g>
<defs>
<clipPath id="clip0_2242_963">
<rect width="21" height="21" fill="white" transform="translate(16.5 16.5)"/>
</clipPath>
</defs>
</svg>
